<svg xmlns="http://www.w3.org/2000/svg" width="39" height="39" viewBox="0 0 39 39"><g><g><path fill="#fff" d="M19.5 38.5a18.875 18.875 0 0 1-13.435-5.566A18.876 18.876 0 0 1 .5 19.5c0-5.075 1.976-9.847 5.565-13.436A18.876 18.876 0 0 1 19.5.5c5.075 0 9.846 1.977 13.435 5.565A18.877 18.877 0 0 1 38.5 19.5c0 3.75-1.113 7.397-3.22 10.547a1.485 1.485 0 0 1-2.467-1.65A15.969 15.969 0 0 0 35.53 19.5c0-8.84-7.192-16.032-16.031-16.032-8.84 0-16.031 7.192-16.031 16.032 0 8.839 7.191 16.03 16.03 16.03 2.933 0 5.8-.798 8.294-2.308a1.485 1.485 0 0 1 1.538 2.54A18.973 18.973 0 0 1 19.5 38.5zM29.815 17.42c-.207 0-.418-.043-.62-.136-1.56-.718-3.351-1.348-3.832-1.348a1.484 1.484 0 0 1-2.969 0c0-.799.087-1.624.716-2.253.63-.629 1.455-.716 2.253-.716 1.443 0 4.249 1.24 5.074 1.62a1.483 1.483 0 0 1-.622 2.833zm-20.556 0a1.484 1.484 0 0 1-.622-2.832c.826-.38 3.631-1.62 5.074-1.62.798 0 1.624.086 2.253.715.629.63.716 1.454.716 2.253a1.484 1.484 0 0 1-2.97 0c-.48 0-2.27.63-3.832 1.349a1.482 1.482 0 0 1-.619.135zm3.857 11.728a1.485 1.485 0 0 1-1.304-2.191c.098-.184 2.487-4.49 7.614-4.49s7.515 4.306 7.614 4.49L24.43 28.37c-.117-.205-1.73-2.933-5.003-2.933-3.378 0-4.987 2.904-5.003 2.933-.269.496-.78.779-1.307.779zm11.317-.771l-.005-.008.005.008z"/></g></g></svg>